Patient4_TMGait_0pt3_02_right_04_GRF.mot
version=1
nRows=45
nColumns=19
inDegrees=no
endheader
time	F1x	F1y	F1z	M1x	M1y	M1z	F2x	F2y	F2z	M2x	M2y	M2z	EC1x	EC1y	EC1z	EC2x	EC2y	EC2z
6.2	12.1319	705.5377	37.979	-280.9559	-28.6833	639.4313	2.9131	20.1004	-2.2636	6.7921	2.4444	19.9957	-0.0592	0.0182	-0.0073	-0.0462	0.0165	0.9585
6.2209	10.3771	723.8996	39.5981	-287.984	-30.8847	656.9164	1.4183	15.5137	-1.7559	5.2732	2.0546	15.2612	-0.0592	0.0182	-0.0073	-0.0462	0.0165	0.9585
6.2419	8.169	747.6796	41.6551	-297.0833	-33.5644	679.0883	0.34008	11.073	-1.2323	3.7957	1.583	10.7964	-0.0592	0.0182	-0.0073	-0.0462	0.0165	0.9585
6.2628	5.7122	775.8231	44.0316	-307.8315	-36.525	704.8497	-0.33132	7.3102	-0.76857	2.5396	1.1193	7.0919	-0.0592	0.0182	-0.0073	-0.0462	0.0165	0.9585
6.2837	3.2723	806.3284	46.552	-319.4351	-39.5134	732.2802	-0.68992	4.45	-0.40077	1.5825	0.72366	4.3353	-0.0592	0.0182	-0.0073	-0.0462	0.0165	0.9585
6.3046	1.1451	836.3856	49.0249	-330.7853	-42.2618	758.7739	-0.83147	2.471	-0.13403	0.91848	0.4186	2.4749	-0.0592	0.0182	-0.0073	-0.0462	0.0165	0.9585
6.3256	-0.41048	862.6177	51.2758	-340.5554	-44.5406	781.2741	-0.83861	1.2142	0.045267	0.49379	0.20327	1.3312	-0.0592	0.0182	-0.0073	-0.0462	0.0165	0.9585
6.3465	-1.2113	881.5756	53.1524	-347.3972	-46.1731	796.7116	-0.7755	0.45346	0.15607	0.2316	0.063633	0.66598	-0.0592	0.0182	-0.0073	-0.0462	0.0165	0.9585
6.3674	-1.1574	890.4168	54.5164	-350.2119	-47.0231	802.5912	-0.68635	-0.054777	0.21849	0.048308	-0.020996	0.23068	-0.0592	0.0182	-0.0073	-0.0462	0.0165	0.9585
6.3884	-0.25036	887.6176	55.2297	-348.4351	-46.9846	797.6114	-0.5963	-0.54641	0.24949	-0.13708	-0.072611	-0.21361	-0.0592	0.0182	-0.0073	-0.0462	0.0165	0.9585
6.4093	1.4653	873.4706	55.1777	-342.232	-45.9753	782.0734	-0.5135	-1.2281	0.26546	-0.39666	-0.11096	-0.87332	-0.0592	0.0182	-0.0073	-0.0462	0.0165	0.9585
6.4302	3.9517	850.0979	54.3084	-332.4895	-43.9549	757.8733	-0.43045	-2.2544	0.28166	-0.78558	-0.15624	-1.8986	-0.0592	0.0182	-0.0073	-0.0462	0.0165	0.9585
6.4511	7.1845	820.9789	52.6712	-320.6182	-40.9615	728.0741	-0.32971	-3.707	0.30747	-1.3319	-0.2244	-3.3721	-0.0592	0.0182	-0.0073	-0.0462	0.0165	0.9585
6.4721	11.1675	790.2379	50.4271	-308.2613	-37.1189	696.2757	-0.18756	-5.555	0.34575	-2.0218	-0.32368	-5.2693	-0.0592	0.0182	-0.0073	-0.0462	0.0165	0.9585
6.493	15.9173	761.8486	47.8339	-296.9787	-32.6344	665.9372	0.02337	-7.6016	0.39205	-2.7813	-0.45699	-7.3945	-0.0592	0.0182	-0.0073	-0.0462	0.0165	0.9585
6.5139	21.4201	738.8829	45.196	-287.9525	-27.7761	639.7542	0.32856	-9.4186	0.43202	-3.4516	-0.61682	-9.317	-0.0592	0.0182	-0.0073	-0.0462	0.0165	0.9585
6.5349	27.6081	722.9667	42.8087	-281.7816	-22.8313	619.2202	0.74064	-10.2724	0.4391	-3.76	-0.77666	-10.3015	-0.0592	0.0182	-0.0073	-0.0462	0.0165	0.9585
6.5558	34.3174	714.0456	40.9153	-278.3926	-18.0844	604.459	1.2469	-9.0633	0.37181	-3.297	-0.88442	-9.2377	-0.0592	0.0182	-0.0073	-0.0462	0.0165	0.9585
6.5767	41.2385	710.4575	39.6755	-277.0695	-13.806	594.3053	1.8031	-4.2988	0.17246	-1.5059	-0.85627	-4.5975	-0.0592	0.0182	-0.0073	-0.0462	0.0165	0.9585
6.5976	47.9048	709.2805	39.1405	-276.5985	-10.2379	586.609	2.3118	5.853	-0.22839	2.2957	-0.57115	5.5118	-0.0592	0.0182	-0.0073	-0.0462	0.0165	0.9585
6.6186	53.7118	706.8837	39.2529	-275.4953	-7.5868	578.6869	2.5985	23.3735	-0.90576	8.8454	0.12832	23.1535	-0.0592	0.0182	-0.0073	-0.0462	0.0165	0.9585
6.6395	58.0036	699.6361	39.848	-272.2986	-5.9909	567.8746	2.3902	50.0114	-1.9281	18.7933	1.4247	50.1701	-0.0592	0.0182	-0.0073	-0.0462	0.0165	0.9585
6.6604	60.208	684.6563	40.6461	-265.8796	-5.4612	552.0756	1.2433	86.6948	-3.3344	32.4794	3.5269	87.5882	-0.0592	0.0182	-0.0073	-0.0462	0.0165	0.9585
6.6814	59.9638	660.3225	41.2887	-255.6483	-5.8661	530.1236	-1.5446	132.7965	-5.1151	49.6574	6.6754	134.8694	-0.0592	0.0182	-0.0073	-0.0462	0.0165	0.9585
6.7023	57.2463	626.5013	41.4255	-241.6289	-6.95	501.9004	-6.3689	185.6933	-7.2789	69.3218	11.0001	189.4361	-0.0592	0.0182	-0.0073	-0.0462	0.0165	0.9585
6.7232	52.4489	584.5355	40.8103	-224.4381	-8.3723	468.2884	-12.8772	241.3439	-10.0738	89.9089	16.5929	247.1876	-0.0592	0.0182	-0.0073	-0.0462	0.0165	0.9585
6.7441	46.366	536.9225	39.3701	-205.1414	-9.7614	430.9268	-20.3434	296.4038	-13.5373	110.1243	23.1928	304.6512	-0.0592	0.0182	-0.0073	-0.0462	0.0165	0.9585
6.7651	39.999	486.5563	37.2025	-184.9414	-10.7864	391.6882	-28.0126	349.0104	-17.4004	129.2629	30.2297	359.8111	-0.0592	0.0182	-0.0073	-0.0462	0.0165	0.9585
6.786	34.196	435.9337	34.4823	-164.8576	-11.2267	352.1842	-35.2356	397.8965	-21.2814	146.8688	37.0692	411.2226	-0.0592	0.0182	-0.0073	-0.0462	0.0165	0.9585
6.8069	29.3894	386.843	31.3976	-145.5985	-11.0315	313.6193	-41.4757	442.0176	-24.8476	162.581	43.1743	457.6593	-0.0592	0.0182	-0.0073	-0.0462	0.0165	0.9585
6.8279	25.6198	340.5233	28.116	-127.6279	-10.2899	276.917	-46.3579	480.5872	-27.8875	176.1413	48.1933	498.1698	-0.0592	0.0182	-0.0073	-0.0462	0.0165	0.9585
6.8488	22.6961	297.8405	24.7831	-111.2422	-9.1708	242.8045	-49.727	513.2397	-30.3099	187.4518	51.984	532.2532	-0.0592	0.0182	-0.0073	-0.0462	0.0165	0.9585
6.8697	20.374	259.3174	21.5305	-96.5932	-7.8557	211.7759	-51.644	540.2329	-32.1035	196.6459	54.5742	560.0616	-0.0592	0.0182	-0.0073	-0.0462	0.0165	0.9585
6.8906	18.4932	225.0946	18.462	-83.6856	-6.4766	184.0289	-52.2729	562.4836	-33.3432	204.0955	56.1197	582.4278	-0.0592	0.0182	-0.0073	-0.0462	0.0165	0.9585
6.9116	16.9965	194.9559	15.6462	-72.3941	-5.1039	159.469	-51.8177	581.2283	-34.1624	210.2857	56.847	600.5377	-0.0592	0.0182	-0.0073	-0.0462	0.0165	0.9585
6.9325	15.8569	168.5069	13.1131	-62.5328	-3.7737	137.8364	-50.4808	597.6016	-34.6668	215.6643	56.9485	615.522	-0.0592	0.0182	-0.0073	-0.0462	0.0165	0.9585
6.9534	15.0044	145.444	10.8707	-53.9588	-2.5231	118.9276	-48.4269	612.3222	-34.8843	220.5291	56.5237	628.1489	-0.0592	0.0182	-0.0073	-0.0462	0.0165	0.9585
6.9744	14.3261	125.7195	8.9285	-46.6354	-1.406	102.7312	-45.7825	625.5582	-34.7709	224.9795	55.5822	638.6867	-0.0592	0.0182	-0.0073	-0.0462	0.0165	0.9585
6.9953	13.7234	109.5408	7.3175	-40.6273	-0.48814	89.4221	-42.6559	637.0108	-34.2322	228.9422	54.0677	646.9824	-0.0592	0.0182	-0.0073	-0.0462	0.0165	0.9585
7.0162	13.1403	97.1697	6.0818	-36.0246	0.17144	79.206	-39.1552	646.1748	-33.1738	232.2533	51.9144	652.7047	-0.0592	0.0182	-0.0073	-0.0462	0.0165	0.9585
7.0371	12.5512	88.6119	5.2445	-32.8268	0.54168	72.0781	-35.4079	652.612	-31.621	234.7369	49.1729	655.5895	-0.0592	0.0182	-0.0073	-0.0462	0.0165	0.9585
7.0581	11.937	83.3634	4.7871	-30.8472	0.62678	67.6229	-31.586	656.2419	-29.7726	236.3053	46.0696	655.7095	-0.0592	0.0182	-0.0073	-0.0462	0.0165	0.9585
7.079	11.2557	80.3437	4.6565	-29.6872	0.44772	64.9674	-27.9162	657.6139	-27.9596	237.0755	42.9771	653.7281	-0.0592	0.0182	-0.0073	-0.0462	0.0165	0.9585
7.0999	10.4331	78.0576	4.7672	-28.798	0.038829	62.9127	-24.6246	658.0169	-26.5492	237.4386	40.3125	650.9765	-0.0592	0.0182	-0.0073	-0.0462	0.0165	0.9585
7.1209	9.3718	74.9753	5.0017	-27.62	-0.54897	60.2417	-21.8405	659.2699	-25.8449	238.0029	38.4138	649.2227	-0.0592	0.0182	-0.0073	-0.0462	0.0165	0.9585
